PathFileType	4	(X/Y/Z)	C:/Users/opensim2020/Desktop/walking_exp_matlab/subject06_walking19_straight_02.trc																																																																																																																																																	
DataRate	CameraRate	NumFrames	NumMarkers	Units	OrigDataRate	OrigDataStartFrame	OrigNumFrames																																																																																																																																													
100	100	4	49	mm	100	2234	332																																																																																																																																													
Frame#	Time	LFHD			RFHD			LBHD			RBHD			C7			T10			CLAV			STRN			RBAK			LSHO			LUPA			LELB			LFRM			LWRA			LWRB			LFIN			RSHO			RUPA			RELB			RFRM			RWRA			RWRB			RFIN			LASI			RASI			LPSI			RPSI			LTHI			LKNE			LTIB			LANK			LHEE			LTOE			RTHI			RKNE			RTIB			RANK			RHEE			RTOE			*39			*40			*41			*42			*43			*44			*45			*46			*47			*48		
		X1	Y1	Z1	X2	Y2	Z2	X3	Y3	Z3	X4	Y4	Z4	X5	Y5	Z5	X6	Y6	Z6	X7	Y7	Z7	X8	Y8	Z8	X9	Y9	Z9	X10	Y10	Z10	X11	Y11	Z11	X12	Y12	Z12	X13	Y13	Z13	X14	Y14	Z14	X15	Y15	Z15	X16	Y16	Z16	X17	Y17	Z17	X18	Y18	Z18	X19	Y19	Z19	X20	Y20	Z20	X21	Y21	Z21	X22	Y22	Z22	X23	Y23	Z23	X24	Y24	Z24	X25	Y25	Z25	X26	Y26	Z26	X27	Y27	Z27	X28	Y28	Z28	X29	Y29	Z29	X30	Y30	Z30	X31	Y31	Z31	X32	Y32	Z32	X33	Y33	Z33	X34	Y34	Z34	X35	Y35	Z35	X36	Y36	Z36	X37	Y37	Z37	X38	Y38	Z38	X39	Y39	Z39	X40	Y40	Z40	X41	Y41	Z41	X42	Y42	Z42	X43	Y43	Z43	X44	Y44	Z44	X45	Y45	Z45	X46	Y46	Z46	X47	Y47	Z47	X48	Y48	Z48	X49	Y49	Z49
																																																																																																																																																				
42	0.41	-993.00098	1664.1106	978.74182	-984.57617	1652.31189	1110.07947	-1121.15454	1598.24023	984.96899	-1111.0354	1591.4834	1114.20361	-1106.57495	1445.43811	1028.58105	-1133.22131	1118.60657	1029.35352	-993.99359	1371.62561	1034.68323	-951.54645	1195.15808	1025.50513	-1178.33936	1273.29321	1096.59485	-1034.62329	1407.29761	870.57251	-1010.93689	1207.37122	794.59857	-996.09271	1095.62109	780.45166	-897.47308	983.49243	766.68591	-778.98499	939.57288	811.07886	-824.31989	890.65247	785.26941	-741.08417	853.57788	788.36652	-1049.46411	1398.27026	1193.46228	-1107.72314	1201.67151	1271.51428	-1111.45947	1079.10986	1278.82043	-1112.54761	958.23529	1293.03052	-1069.25757	812.80432	1263.1637	-1126.97546	820.4873	1297.90796	-1101.12268	739.98907	1300.60681	-965.16949	947.53815	923.40881	-954.26343	967.08673	1144.80701	-1118.50793	987.03174	957.40149	-1107.07788	995.93463	1125.3009	-1098.02112	643.83093	878.55139	-1137.50598	483.87408	899.35431	-1282.32751	269.06195	905.57367	-1357.99316	111.48853	947.89374	-1401.79077	112.64766	991.66364	-1234.94482	33.13652	959.48193	-967.39185	641.00751	1204.85718	-939.82568	520.72375	1173.17432	-947.93964	254.61899	1177.1012	-942.74768	67.89703	1134.99731	-983.25232	41.06704	1094.39709	-788.25226	38.21064	1117.31689	-1092.84509	1693.12866	1043.96667	NaN	NaN	NaN	NaN	NaN	NaN	NaN	NaN	NaN	NaN	NaN	NaN	NaN	NaN	NaN	NaN	NaN	NaN	NaN	NaN	NaN	NaN	NaN	NaN	NaN	NaN	NaN
43	0.42	-986.82758	1665.25012	980.39984	-978.28082	1653.31079	1111.71069	-1114.80676	1599.1123	986.56073	-1104.62158	1592.28943	1115.79919	-1100.07068	1446.28674	1030.28186	-1126.09082	1119.48413	1031.42139	-987.38123	1372.69116	1036.35059	-944.55084	1196.35168	1027.28992	-1171.41284	1274.23621	1098.50342	-1028.24841	1408.15576	872.28235	-1004.10687	1208.36499	796.29401	-989.31171	1096.57837	782.30353	-891.10132	984.17017	767.79669	-772.81311	939.32111	811.96936	-818.36499	890.83173	785.80249	-735.23212	853.44214	788.49933	-1042.71423	1399.51453	1195.08167	-1101.22363	1202.84607	1272.85229	-1105.06885	1080.34473	1280.06128	-1105.90784	959.43304	1293.89453	-1062.40088	814.14429	1263.35278	-1120.07568	821.5744	1298.28271	-1094.07214	741.04761	1300.49646	-958.45471	948.87146	924.81165	-946.82172	967.59143	1146.1709	-1111.67444	987.99774	959.54785	-1099.42993	996.82336	1127.29114	-1091.56555	645.13129	878.99042	-1130.651	484.97009	899.06458	-1277.4281	271.71762	904.57654	-1355.47266	114.89496	946.45703	-1399.23645	117.24604	989.78735	-1234.40308	33.2011	959.28162	-960.8905	641.22626	1205.30847	-934.56	520.8822	1173.58008	-945.24078	254.72215	1177.12488	-942.30072	67.92467	1134.89819	-983.18768	41.06841	1094.38794	-788.19489	38.39286	1116.82556	-1086.64697	1694.04395	1045.7207	NaN	NaN	NaN	NaN	NaN	NaN	NaN	NaN	NaN	NaN	NaN	NaN	NaN	NaN	NaN	NaN	NaN	NaN	NaN	NaN	NaN	NaN	NaN	NaN	NaN	NaN	NaN
44	0.43	-980.58905	1666.18347	982.01068	-972.02301	1654.22339	1113.29199	-1108.5498	1599.98157	988.17322	-1098.08826	1593.01501	1117.10925	-1093.54395	1447.00366	1031.9502	-1118.96863	1120.18237	1033.46411	-980.85394	1373.60437	1037.96155	-937.35785	1197.25586	1029.03357	-1164.50745	1274.93152	1100.48035	-1021.96692	1408.86133	873.94019	-997.44312	1209.17029	797.97003	-982.43256	1097.41602	783.85394	-884.82397	984.62134	768.8443	-766.77167	938.79907	812.94794	-812.30957	891.12488	786.28186	-729.43768	853.17108	788.87811	-1035.9801	1400.60168	1196.77625	-1094.70374	1204.07971	1274.58215	-1098.54321	1081.38135	1281.34863	-1099.17224	960.40765	1294.8175	-1055.29236	815.31024	1263.60229	-1112.92407	822.48749	1298.7179	-1086.86682	741.91718	1300.4873	-951.80621	949.95923	926.17804	-939.25684	968.22949	1147.50403	-1104.8573	988.73688	961.49725	-1092.00598	997.55475	1129.15112	-1084.99805	646.26605	879.57465	-1123.50476	485.87524	898.91614	-1272.42175	274.21939	903.75922	-1352.74536	118.33958	944.59094	-1396.26257	121.45602	987.90167	-1233.84021	33.313	959.07959	-954.54669	641.59515	1206.17676	-929.46252	520.87177	1174.03479	-942.27216	254.68292	1177.2561	-941.91626	67.96318	1134.85974	-983.08643	41.08989	1094.4895	-788.06201	38.45329	1116.48645	-1080.42004	1694.84607	1047.3009	NaN	NaN	NaN	NaN	NaN	NaN	NaN	NaN	NaN	NaN	NaN	NaN	NaN	NaN	NaN	NaN	NaN	NaN	NaN	NaN	NaN	NaN	NaN	NaN	NaN	NaN	NaN
45	0.44	-974.34235	1667.06799	983.51068	-965.79779	1655.05359	1114.82947	-1102.14233	1600.55347	989.92273	-1091.82788	1593.68335	1118.6731	-1087.10376	1447.63977	1033.69495	-1111.93115	1120.73291	1035.48071	-974.25586	1374.48523	1039.55591	-930.69989	1198.22888	1030.65344	-1157.70251	1275.44788	1102.5437	-1015.85229	1409.36658	875.59656	-990.96106	1209.77258	799.66992	-975.45453	1098.09399	785.19489	-878.59027	984.86658	769.84985	-760.95917	938.00006	814.0083	-807.05249	890.48401	786.30231	-724.09241	852.4267	788.83234	-1029.27258	1401.50073	1198.48962	-1088.12036	1204.97607	1276.17407	-1091.92993	1082.21729	1282.68945	-1092.34875	961.20038	1295.83936	-1048.06592	816.16083	1263.8717	-1105.65479	823.08514	1299.17297	-1079.55237	742.57379	1300.52759	-945.1864	950.87152	927.47046	-931.63452	968.95251	1148.64355	-1098.17175	989.36377	963.31604	-1084.63074	998.19727	1130.85986	-1078.16223	647.11084	880.20343	-1116.13867	486.54977	898.89014	-1267.2406	276.61649	903.14148	-1349.72583	121.79301	943.4292	-1393.21448	125.8015	986.47211	-1233.31677	33.45811	958.96893	-948.50568	641.76776	1207.0708	-924.44592	520.79822	1174.70178	-939.48505	254.65233	1177.5127	-941.38147	67.89511	1134.81567	-982.9635	41.17025	1094.60986	-787.86023	38.45142	1116.28394	-1074.28235	1695.52014	1048.82434	NaN	NaN	NaN	NaN	NaN	NaN	NaN	NaN	NaN	NaN	NaN	NaN	NaN	NaN	NaN	NaN	NaN	NaN	NaN	NaN	NaN	NaN	NaN	NaN	NaN	NaN	NaN
